<?xml version="1.0" encoding="UTF-8" standalone="no"?>
<!-- Created with Inkscape (http://www.inkscape.org/) -->

<svg
   width="90.859566mm"
   height="86.336624mm"
   viewBox="0 0 90.859566 86.336624"
   version="1.1"
   id="svg1"
   xml:space="preserve"
   xmlns="http://www.w3.org/2000/svg"
   xmlns:svg="http://www.w3.org/2000/svg"><defs
     id="defs1" /><g
     id="layer1"
     transform="translate(-3296.6785,-85.73261)"><g
       id="g170-0-9"
       transform="matrix(0.23115847,0,0,0.23115847,3296.0792,84.229017)"><g
         id="g159-8-5">
	<g
   id="g148-1-3">
		<path
   class="st0"
   d="m 330.4,288.7 -0.3,-0.3 c 0,0 -95.7,-4.5 -103.1,-4.8 -7.4,-0.4 -64.5,-11.3 -74,-13 -9.5,-1.7 -19,0.3 -31.3,0 -12.3,-0.3 -12.7,-14.3 -12.7,-14.3 0,0 4.7,-34.3 47,-25.8 42.3,8.5 97.3,16.5 97.3,16.5 0,0 15.7,1.7 52,1.7 36.3,0 64.8,-18.2 64.8,-18.2 h 1 c 0,0 7.6,1 7.6,11 0,10 -19.4,19.2 -19.4,19.2 v 2.3 c 0,0 3.8,4 3.8,7.3 0,3.3 -5,18.3 -32.5,18.3 0.1,-0.2 0,-0.1 -0.2,0.1 z"
   id="path134-0-1"
   style="fill:#e59eff;fill-opacity:1" />
		<path
   class="st1"
   d="M 3.6,225.6 C 3.4,201.9 7.5,177 8.3,172.8 c 1.6,-8.4 25.7,-63.2 36,-68.2 0.7,-0.3 2.3,-1.6 2.9,-2 3.2,-2.1 11.5,-6.8 17.4,-6.8 0,0 27.3,-88.3 94.5,-88.3 0,0 29.3,-3 64.2,24 12.3,18.2 12.6,33.5 12.6,33.5 0,9.8 27.8,22.8 27.8,27.8 0,5 -2.3,7 -2.3,7 -21,-11.3 -62,-10 -62,-10 -21.3,0 -52,26.3 -63,26.3 -1,-0.3 -17,0 -19,0 -2,0 -3.7,1 -3.7,5.3 0,4.3 4.7,5.3 4.7,5.3 l 10.7,0.3 11,2.2 c 20.7,15.8 34.3,22.8 46,23.5 0.6,0 1.3,0.1 2.1,0.1 12.4,0.5 35.6,-0.1 35.6,-0.1 0,0 15.3,-1.9 28.2,-6.4 5.9,-2.1 11.2,-4.7 14.5,-7.9 0,0 2,4.7 3.3,6 1.3,1.3 38.6,5.8 40,6 0,0 0,0 0,0 28.4,0 48,-3.2 60.4,-6.2 10.2,-2.5 15.4,-5 16.6,-5.6 l -0.1,4 c 0,1.9 -1.1,3.6 -2.8,4.5 l -11.5,6.1 c 0,0 -3.2,13 -30.7,25.3 0,0 31.8,23.8 29.5,51.8 h -1 c 0,0 -28.4,18.2 -64.8,18.2 -36.4,0 -52,-1.7 -52,-1.7 0,0 -55,-8 -97.3,-16.5 -42.3,-8.5 -47,25.8 -47,25.8 0,0 0.3,14 12.7,14.3 12.3,0.3 21.8,-1.7 31.3,0 9.5,1.7 66.6,12.6 74,13 7.4,0.3 103.1,4.8 103.1,4.8 l 0.3,0.3 c -1.9,2.3 -15.5,17.5 -51.3,30.4 0,0 -10.1,1 -10.4,4 -0.1,0.6 -0.1,1.2 -0.1,1.8 h -0.3 -9 -1 c 0,0 -15.3,3 -21.6,3 -6.3,0 -69.3,0 -69.3,0 0,0 -86.7,-1 -148,-34.5 H 19 c 0,0 -10.8,-15 -10.8,-17.3 0,-1 -4.4,-25 -4.6,-50.3 z"
   id="path135-3-1"
   style="fill:#bcffbb;fill-opacity:1" />
		<path
   class="st2"
   d="m 393.9,124.9 c 0.3,5.3 3.8,5.3 -7.3,13.8 v 0.1 c -1.2,0.6 -6.4,3 -16.6,5.6 l -0.2,-0.8 c 0,0 0.3,-31 -31,-31 -31.3,0 -29.2,31.4 -29.2,37.5 v 0.5 c -1.4,-0.2 -38.6,-4.6 -40,-6 -1.4,-1.4 -3.3,-6 -3.3,-6 0,0 6,-10 6,-16.7 0,0 0.1,0 0.3,-0.1 3.4,-1.2 40.8,-13.6 87.1,-13.6 0,0 20.9,1.2 31.6,10.7 v 0 c 1.1,1.3 2.5,3.2 2.6,6 z"
   id="path136-1-2"
   style="fill:#ffffff" />
		<path
   class="st1"
   d="m 392.4,111.1 v 2.8 c 0,0 -0.5,2.5 -2,3 -0.7,0.2 0,0.9 1,2.1 -10.7,-9.6 -31.6,-10.7 -31.6,-10.7 -46.3,0 -83.7,12.4 -87.1,13.6 l -0.3,-0.9 c 0,0 -2,-6.7 -3.7,-9 -1.7,-2.3 -23.7,-1 -34,0 -19.6,0 -61,17.5 -94.7,17.5 l -11,-2.2 -10.7,-0.3 c 0,0 -4.7,-1 -4.7,-5.3 0,-4.3 1.7,-5.3 3.7,-5.3 2,0 18,-0.3 19,0 11,0 41.7,-26.3 63,-26.3 0,0 41,-1.3 62,10 0,0 2.3,-2 2.3,-7 0,-5 -27.8,-18 -27.8,-27.8 0,0 -0.4,-15.3 -12.6,-33.4 0,0 33.7,-18.9 54.9,-18.9 40.3,0 56.5,30.7 56.5,52.2 0,0 19.7,2.4 35.7,19.2 v 4.8 c 0,0 8,0.8 13,8.5 v 7.5 c 0.1,-0.3 5.1,1.2 9.1,5.9 z"
   id="path137-1-6"
   style="fill:#bcffbb;fill-opacity:1" />
		<path
   d="m 369.9,143.5 0.2,0.8 c -12.4,3.1 -32,6.2 -60.4,6.2 0,0 0,0 0,0 V 150 c 0,-6.1 -2.2,-37.5 29.2,-37.5 31.4,0 31,31 31,31 z M 352.8,135 c 0,-3.6 -2.6,-4.5 -3.8,-4.7 -0.4,-0.1 -0.8,0 -1.1,0.1 -1.4,0.4 -5.4,1.9 -5.4,4.3 0,3 3.8,6.1 5.9,6.1 2.1,0 4.4,-1 4.4,-5.8 z m -17.3,-10.4 c 0,-4.2 -3.3,-3.7 -3.3,-3.7 0,0 -5.3,0.5 -5.3,3.2 0,2.7 4.5,4.1 4.7,4 0.1,-0.2 3.9,0.7 3.9,-3.5 z m -6.7,19.1 c 0,0 2.9,-0.3 2.8,-2.8 0,-1.2 -0.7,-1.9 -1.4,-2.2 -0.9,-0.5 -1.9,-0.4 -2.8,0.1 -0.7,0.4 -1.3,1.1 -1.3,2.2 -0.1,2.3 2.7,2.7 2.7,2.7 z"
   id="path138-5-9" />
		<path
   class="st2"
   d="m 349,130.4 c 1.2,0.2 3.8,1 3.8,4.7 0,4.7 -2.4,5.9 -4.4,5.9 -2,0 -5.9,-3.1 -5.9,-6.1 0,-2.5 4,-3.9 5.4,-4.3 0.4,-0.2 0.8,-0.3 1.1,-0.2 z"
   id="path139-0-1"
   style="fill:#ffffff" />
		<path
   class="st2"
   d="m 332.2,121 c 0,0 3.3,-0.5 3.3,3.7 0,4.2 -3.7,3.3 -3.9,3.5 -0.2,0.2 -4.7,-1.3 -4.7,-4 0,-2.8 5.3,-3.2 5.3,-3.2 z"
   id="path140-8-9"
   style="fill:#ffffff" />
		<path
   class="st2"
   d="m 331.6,140.9 c 0.1,2.5 -2.8,2.8 -2.8,2.8 0,0 -2.7,-0.4 -2.7,-2.7 0,-1.2 0.7,-1.8 1.3,-2.2 0.9,-0.5 1.9,-0.5 2.8,-0.1 0.7,0.3 1.3,1 1.4,2.2 z"
   id="path141-4-0"
   style="fill:#ffffff" />
		<path
   class="st3"
   d="M 316.9,378.9 H 6.4 v -80 c 0,0 6.3,-1.3 9.8,-1.5 h 0.5 c 4,7.5 45,25.3 45,25.3 28.8,14.6 85.3,17.4 88.3,17.5 l 45.5,1.5 c 63.2,0 64,-13.8 64,-13.8 v -3 h 9 0.3 c 0,2.2 0.1,4 0.1,4 0,0 28.3,18.6 33,24.6 4.7,6 5.3,3.4 15,25.4 z"
   id="path142-9-6"
   style="fill:#bcffbb;fill-opacity:1" />
		<path
   class="st2"
   d="m 272.4,120.9 0.3,0.9 c -0.2,0.1 -0.3,0.1 -0.3,0.1 0,6.7 -6,16.7 -6,16.7 -3.2,3.2 -8.6,5.8 -14.5,7.9 l -0.3,-0.6 c 0,0 -4.7,-31.3 -36.5,-26 -31.8,5.3 -27,25.3 -27,32.5 v 0.6 c -0.7,0 -1.4,-0.1 -2.1,-0.1 -11.7,-0.7 -25.3,-7.7 -46,-23.5 33.7,0 75.1,-17.5 94.7,-17.5 10.3,-1 32.3,-2.3 34,0 1.7,2.3 3.7,9 3.7,9 z"
   id="path143-3-1"
   style="fill:#ffffff" />
		<path
   class="st1"
   d="m 259.4,324.9 v 3 c 0,0 -0.8,13.8 -64,13.8 l -45.5,-1.5 c -3,-0.1 -59.5,-2.9 -88.3,-17.5 0,0 -41,-17.8 -45,-25.3 h -0.5 c 0,0 -0.3,-1.8 2.8,-4 h 0.5 c 61.3,33.5 148,34.5 148,34.5 0,0 63,0 69.3,0 6.3,0 21.6,-3 21.6,-3 z"
   id="path144-0-7"
   style="fill:#bcffbb;fill-opacity:1" />
		<path
   d="m 251.7,145.9 0.3,0.6 c -12.9,4.5 -28.2,6.4 -28.2,6.4 0,0 -23.2,0.6 -35.6,0.1 v -0.6 c 0,-7.3 -4.8,-27.3 27,-32.5 31.8,-5.2 36.5,26 36.5,26 z m -17.5,-7.3 c 0,-2.1 -2.1,-3.4 -3.7,-4 -1.2,-0.5 -2.6,-0.4 -3.8,0.2 -1.5,0.8 -3.5,2 -3.5,3.4 0,2.3 1.7,6.4 4.9,6.4 3.2,-0.1 6.1,-2.5 6.1,-6 z m -23.8,-5.8 c 1.2,-0.4 2.9,-1.3 2.8,-4 -0.1,-4 -4.3,-4.1 -4.3,-4.1 0,0 -4.1,0.2 -4.1,3.9 0,2.7 2.4,3.8 3.7,4.2 0.6,0.2 1.2,0.2 1.9,0 z m 2.8,13.8 c 0,-1.5 -1.7,-2.3 -2.5,-2.5 -0.3,-0.1 -0.6,-0.1 -0.9,0 -1.5,0.4 -2.4,1.5 -2.4,2.5 0,0.6 0.9,2.6 2.5,2.6 1.6,-0.1 3.3,-0.7 3.3,-2.6 z"
   id="path145-5-3" />
		<path
   class="st2"
   d="m 230.5,134.5 c 1.7,0.7 3.7,1.9 3.7,4 0,3.5 -2.9,6 -6.1,6 -3.2,0 -4.9,-4.1 -4.9,-6.4 0,-1.4 2,-2.6 3.5,-3.4 1.2,-0.6 2.6,-0.6 3.8,-0.2 z"
   id="path146-2-8"
   style="fill:#ffffff" />
		<path
   class="st2"
   d="m 213.2,128.8 c 0.1,2.6 -1.6,3.6 -2.8,4 -0.6,0.2 -1.3,0.2 -1.9,0 -1.3,-0.4 -3.7,-1.5 -3.7,-4.2 0,-3.7 4.1,-3.9 4.1,-3.9 0,0 4.2,0.2 4.3,4.1 z"
   id="path147-3-7"
   style="fill:#ffffff" />
		<path
   class="st2"
   d="m 210.6,144.1 c 0.8,0.3 2.5,1 2.5,2.5 0,2 -1.7,2.5 -3.3,2.5 -1.6,0 -2.5,-2 -2.5,-2.6 0,-1 0.9,-2.1 2.4,-2.5 0.3,-0.1 0.6,0 0.9,0.1 z"
   id="path148-8-0"
   style="fill:#ffffff" />
	</g>
	<g
   id="g158-7-3">
		<path
   class="st4"
   d="m 391.4,118.9 c 1,1.3 2.4,3.2 2.5,5.9 0.3,5.3 3.8,5.3 -7.3,13.8 v 0.1 l -0.1,4 c 0,1.9 -1.1,3.6 -2.8,4.5 l -11.5,6.1 c 0,0 -3.2,13 -30.7,25.3 0,0 31.8,23.8 29.5,51.8 0,0 7.6,1 7.6,11 0,10 -19.4,19.2 -19.4,19.2 v 2.3 c 0,0 3.8,4 3.8,7.3 0,3.3 -5,18.3 -32.5,18.3 0,0 -0.1,0.1 -0.2,0.3 -1.9,2.3 -15.5,17.5 -51.3,30.4 0,0 -10.1,1 -10.4,4 -0.1,0.6 -0.1,1.2 -0.1,1.8 0,2.2 0.1,4 0.1,4 0,0 28.3,18.6 33,24.6 4.7,6 5.3,3.4 15,25.4 H 6.4 v -80 c 0,0 6.3,-1.3 9.8,-1.5 0,0 -0.3,-1.8 2.8,-4 0,0 -10.8,-15 -10.8,-17.3 C 8.2,275 3.8,251 3.6,225.7 3.4,202 7.5,177.1 8.3,172.9 c 1.6,-8.4 25.7,-63.2 36,-68.2 0.7,-0.3 2.3,-1.6 2.9,-2 3.2,-2.1 11.5,-6.8 17.4,-6.8 0,0 27.3,-88.3 94.5,-88.3 0,0 29.3,-3 64.2,24 0,0 33.7,-18.9 54.9,-18.9 40.3,0 56.5,30.7 56.5,52.2 0,0 19.7,2.4 35.7,19.2 v 4.8 c 0,0 8,0.8 13,8.5 v 7.5 c 0,0 5,1.5 9,6.3 v 2.8 c 0,0 -0.5,2.5 -2,3 -0.7,0.1 0,0.7 1,1.9"
   id="path149-8-6"
   style="fill:none;stroke:#000000;stroke-width:2;stroke-linecap:round;stroke-miterlimit:10" />
		<path
   class="st4"
   d="m 272.7,121.8 c 3.4,-1.2 40.8,-13.6 87.1,-13.6 0,0 20.9,1.2 31.6,10.7 v 0"
   id="path150-0-9"
   style="fill:none;stroke:#000000;stroke-width:2;stroke-linecap:round;stroke-miterlimit:10" />
		<path
   class="st5"
   d="m 386.9,138.6 c 0,0 -0.1,0 -0.3,0.1 -1.2,0.6 -6.4,3 -16.6,5.6 -12.4,3.1 -32,6.2 -60.4,6.2 0,0 0,0 0,0 -1.4,-0.2 -38.6,-4.6 -40,-6 -1.4,-1.4 -3.3,-6 -3.3,-6 0,0 6,-10 6,-16.7 0,0 0.1,0 0.3,-0.1"
   id="path151-4-1"
   style="fill:none;stroke:#000000;stroke-width:1.75;stroke-linecap:round;stroke-miterlimit:10" />
		<path
   class="st5"
   d="m 266.4,138.5 c -3.2,3.2 -8.6,5.8 -14.5,7.9 -12.9,4.5 -28.2,6.4 -28.2,6.4 0,0 -23.2,0.6 -35.6,0.1 -0.7,0 -1.4,-0.1 -2.1,-0.1 -11.7,-0.7 -25.3,-7.7 -46,-23.5"
   id="path152-5-4"
   style="fill:none;stroke:#000000;stroke-width:1.75;stroke-linecap:round;stroke-miterlimit:10" />
		<path
   class="st5"
   d="m 223.3,31.6 c 12.3,18.1 12.6,33.4 12.6,33.4 0,9.8 27.8,22.8 27.8,27.8 0,5 -2.3,7 -2.3,7 -21,-11.3 -62,-10 -62,-10 -21.3,0 -52,26.3 -63,26.3 -1,-0.3 -17,0 -19,0 -2,0 -3.7,1 -3.7,5.3 0,4.3 4.7,5.3 4.7,5.3 l 10.7,0.3 11,2.2 c 33.7,0 75.1,-17.5 94.7,-17.5 10.3,-1 32.3,-2.3 34,0 1.7,2.3 3.7,9 3.7,9"
   id="path153-7-1"
   style="fill:none;stroke:#000000;stroke-width:1.75;stroke-linecap:round;stroke-miterlimit:10" />
		<path
   class="st5"
   d="m 370.2,230.4 c 0,0 -28.4,18.2 -64.8,18.2 -36.4,0 -52,-1.7 -52,-1.7 0,0 -55,-8 -97.3,-16.5 -42.3,-8.5 -47,25.8 -47,25.8 0,0 0.3,14 12.7,14.3 12.3,0.3 21.8,-1.7 31.3,0 9.5,1.7 66.6,12.6 74,13 7.4,0.3 103.1,4.8 103.1,4.8"
   id="path154-1-4"
   style="fill:none;stroke:#000000;stroke-width:1.75;stroke-linecap:round;stroke-miterlimit:10" />
		<path
   class="st4"
   d="m 259.4,324.9 v 3 c 0,0 -0.8,13.8 -64,13.8 l -45.5,-1.5 c -3,-0.1 -59.5,-2.9 -88.3,-17.5 0,0 -41,-17.8 -45,-25.3"
   id="path155-0-6"
   style="fill:none;stroke:#000000;stroke-width:2;stroke-linecap:round;stroke-miterlimit:10" />
		<path
   class="st4"
   d="m 19.4,293.4 c 61.3,33.5 148,34.5 148,34.5 0,0 63,0 69.3,0 6.3,0 21.6,-3 21.6,-3 h 1 9"
   id="path156-6-1"
   style="fill:none;stroke:#000000;stroke-width:2;stroke-linecap:round;stroke-miterlimit:10" />
		<path
   class="st5"
   d="m 251.7,145.9 c 0,0 -4.7,-31.3 -36.5,-26 -31.8,5.3 -27,25.3 -27,32.5"
   id="path157-0-0"
   style="fill:none;stroke:#000000;stroke-width:1.75;stroke-linecap:round;stroke-miterlimit:10" />
		<path
   class="st6"
   d="m 369.9,143.5 c 0,0 0.3,-31 -31,-31 -31.3,0 -29.2,31.4 -29.2,37.5"
   id="path158-3-2"
   style="fill:none;stroke:#000000;stroke-width:1.75;stroke-miterlimit:10" />
	</g>
</g><path
         class="st4"
         d="M 134.4,251.9 H 160 c 0.2,0 0.5,0 0.7,0.1 5.9,1.1 80.7,15.4 97.3,14.4 0,0 60.3,4.1 101.3,-5"
         id="path159-3-4"
         style="fill:none;stroke:#000000;stroke-width:2;stroke-linecap:round;stroke-miterlimit:10" /><path
         class="st5"
         d="m 95.4,269.2 c 0,0 3.3,19.3 26.3,21"
         id="path160-5-0"
         style="fill:none;stroke:#000000;stroke-width:1.75;stroke-linecap:round;stroke-miterlimit:10" /><path
         class="st5"
         d="m 189.8,192.2 c 0,0 50.1,-18.7 50.9,-23"
         id="path161-0-4"
         style="fill:none;stroke:#000000;stroke-width:1.75;stroke-linecap:round;stroke-miterlimit:10" /><path
         class="st5"
         d="m 306.1,189.5 c 0,0 -23,-12.7 -29.7,-14"
         id="path162-2-3"
         style="fill:none;stroke:#000000;stroke-width:1.75;stroke-linecap:round;stroke-miterlimit:10" /><path
         class="st5"
         d="m 342.7,178.6 c 0,0 -13.9,6.6 -48.9,3.9"
         id="path163-3-1"
         style="fill:none;stroke:#000000;stroke-width:1.75;stroke-linecap:round;stroke-miterlimit:10" /><path
         class="st5"
         d="m 253.6,83.5 -19.9,-3 c 0,0 -56,-2.3 -71,10.4 0,0 -18.7,15.7 -36.7,15.7"
         id="path164-2-7"
         style="fill:none;stroke:#000000;stroke-width:1.75;stroke-linecap:round;stroke-miterlimit:10" /><path
         class="st5"
         d="m 121.8,66.5 c 0,0 13,-10.7 31,-17 18,-6.3 43,0 43,0 0,0 21.7,6.7 41,18.7"
         id="path165-7-9"
         style="fill:none;stroke:#000000;stroke-width:1.75;stroke-linecap:round;stroke-miterlimit:10" /><path
         class="st4"
         d="m 335.4,64.9 h -7 c 0,0 -5.7,-2 -6.3,-2 -0.7,0 -9.7,0 -9.7,0 0,0 -5.3,-2 -6.3,-2 -1,0 -33.7,0 -33.7,0 0,0 -23.3,1.7 -36.5,4.2"
         id="path166-1-4"
         style="fill:none;stroke:#000000;stroke-width:2;stroke-linecap:round;stroke-miterlimit:10" /><path
         class="st4"
         d="m 264.3,95.8 c 0,0 37.8,-11.9 48.1,-11.9 10.3,0 20,0 20,0 0,0 26.3,1.8 41.2,6"
         id="path167-0-7"
         style="fill:none;stroke:#000000;stroke-width:2;stroke-linecap:round;stroke-miterlimit:10" /><path
         class="st5"
         d="m 385.4,105.9 c 0,0 -18.7,-10.2 -33.7,-11.4 -15,-1.2 -25,-3.6 -38,-1.6 -13,2 -40.7,8.7 -47.3,10.7"
         id="path168-0-0"
         style="fill:none;stroke:#000000;stroke-width:1.75;stroke-linecap:round;stroke-miterlimit:10" /><path
         class="st4"
         d="m 269.4,144.9 v 4 c 0,0 -11.3,11 -12.3,11 h -6.5 c -1.4,0 -2.8,0.4 -4,1.1 l -4.9,2.9 h -51.2 c 0,0 -28.5,-2.5 -47.2,-15.8"
         id="path169-9-1"
         style="fill:none;stroke:#000000;stroke-width:2;stroke-linecap:round;stroke-miterlimit:10" /><path
         class="st5"
         d="m 64.7,95.9 c 0,0 -4.6,26.3 -4.2,31.7"
         id="path170-7-1"
         style="fill:none;stroke:#000000;stroke-width:1.75;stroke-linecap:round;stroke-miterlimit:10" /></g></g><style
     type="text/css"
     id="style1">
	.st0{fill:#A55B36;}
	.st1{fill:#5A8D3E;}
	.st2{fill:#FFFFFF;}
	.st3{fill:#0445FF;}
	.st4{fill:none;stroke:#000000;stroke-width:2;stroke-linecap:round;stroke-miterlimit:10;}
	.st5{fill:none;stroke:#000000;stroke-width:1.75;stroke-linecap:round;stroke-miterlimit:10;}
	.st6{fill:none;stroke:#000000;stroke-width:1.75;stroke-miterlimit:10;}
</style></svg>
