<?xml version="1.0" encoding="UTF-8" standalone="no"?>
<!-- Created with Inkscape (http://www.inkscape.org/) -->

<svg
   width="111.82315mm"
   height="101.99312mm"
   viewBox="0 0 111.82315 101.99312"
   version="1.1"
   id="svg1"
   xml:space="preserve"
   xmlns="http://www.w3.org/2000/svg"
   xmlns:svg="http://www.w3.org/2000/svg"><defs
     id="defs1" /><g
     id="layer1"
     transform="translate(-3420.3048,-75.771108)"><g
       id="g173-1-4"
       transform="translate(2840.6084,154.1233)"><path
         d="m 645.59914,-53.161672 c -0.34785,-0.05649 -0.48142,-0.03403 -0.9076,0.180602 -0.4392,0.223514 -0.47413,0.228275 -0.79447,0.0499 -0.44969,-0.250402 -0.88322,-0.225485 -1.38892,0.07399 -0.11991,0.07043 -0.14112,0.05055 -0.27918,-0.252294 -0.0868,-0.177457 -0.25774,-0.450188 -0.3836,-0.600974 l -0.22779,-0.272102 -0.19594,0.07651 c -0.21856,0.08813 -0.35436,0.303042 -0.35597,0.552325 -0.008,0.245853 0.0736,0.404126 0.33084,0.652292 0.12111,0.115851 0.22576,0.246762 0.22709,0.287852 10e-4,0.04111 -0.20897,0.0854 -0.46511,0.09611 -0.42737,0.02835 -0.65824,0.109618 -0.6282,0.215118 0.005,0.01918 0.25249,0.213232 0.55224,0.428559 0.69122,0.497865 0.78837,0.584249 0.7841,0.751346 -0.002,0.119842 -0.18613,0.566186 -0.90676,2.150207 l -0.17914,0.408674 -0.39181,0.08043 c -0.55141,0.120684 -1.06384,0.287285 -1.53111,0.503246 -0.6317,0.29387 -0.9029,0.288128 -1.49912,-0.0035 l -0.49695,-0.252506 -0.11185,-0.465796 c -0.0676,-0.255515 -0.13945,-0.981516 -0.17171,-1.604753 -0.0624,-1.366319 -0.23436,-1.970513 -0.76919,-2.720252 -0.31459,-0.44956 -0.38906,-0.620154 -0.494,-1.170871 -0.1281,-0.668528 -0.24283,-0.998731 -0.47125,-1.327679 -0.13608,-0.204896 -0.83198,-0.810284 -1.39795,-1.214207 -0.29087,-0.20231 -0.33805,-0.277008 -0.41239,-0.592788 -0.14182,-0.643886 -0.56198,-0.990825 -1.19543,-1.012669 -0.1986,-0.0057 -0.29101,-0.05713 -0.6448,-0.33483 -0.23815,-0.181026 -0.73573,-0.490376 -1.15876,-0.701721 -1.03085,-0.525591 -1.60334,-0.56997 -2.19543,-0.17334 -0.58866,0.390474 -0.89248,1.544824 -0.8537,3.228888 0.008,0.536921 -0.0136,0.66223 -0.18516,0.970242 -0.30872,0.554422 -0.24754,1.02428 0.17598,1.43765 0.2511,0.244729 0.29533,0.527612 0.23751,1.544549 -0.0536,0.922429 0.0807,1.521794 0.43779,1.938523 0.13819,0.157651 0.37486,0.442772 0.53356,0.636052 0.15527,0.199438 0.61427,0.737484 1.01651,1.203565 0.95224,1.087083 1.8356,2.587739 1.68467,2.85879 -0.024,0.04312 -0.21455,0.211413 -0.43045,0.381726 -0.35638,0.277701 -0.42975,0.365971 -0.84823,1.117521 -0.41848,0.75155 -0.4754,0.824774 -0.63087,0.843116 -0.24795,0.03948 -0.47168,-0.181938 -0.61168,-0.582707 -0.18642,-0.563809 -0.42113,-0.750995 -1.21602,-0.975708 -0.37109,-0.101719 -0.7141,-0.195873 -0.75792,-0.204136 -0.18418,-0.04606 -0.17682,0.14365 0.0201,0.47119 0.10872,0.181592 0.24817,0.452924 0.32061,0.598177 0.14967,0.325447 0.40623,0.589358 0.77585,0.795172 0.36345,0.20238 0.48238,0.438078 0.33831,0.696808 -0.096,0.172487 -0.25362,0.238081 -1.24689,0.500098 -1.09261,0.295476 -1.31459,0.389768 -1.13594,0.489241 0.0493,0.02744 0.0793,0.132938 0.0683,0.239765 -0.0332,0.393068 0.51319,0.45523 1.22849,0.127201 0.49604,-0.224146 0.61861,-0.212387 1.14224,0.07918 0.30801,0.171507 0.42568,0.293527 0.68896,0.6903 0.62092,0.942948 0.89148,0.891843 2.06446,-0.359595 0.78495,-0.82995 0.82058,-0.850461 0.88393,-0.500445 0.0606,0.340421 -0.008,2.303795 -0.1191,3.460385 -0.17354,1.70303 -0.35856,2.52809 -0.89129,3.861643 -0.73455,1.826444 -1.05349,3.036936 -1.07842,4.023765 -0.0177,0.611548 -0.27876,1.442692 -0.5846,1.861516 -0.12134,0.174544 -0.24683,0.298356 -0.27147,0.284637 -0.0308,-0.01717 -0.16548,-0.253549 -0.31109,-0.528315 -0.30758,-0.607063 -1.56182,-2.427221 -1.84443,-2.673355 -0.27643,-0.2427 -0.59754,-0.332725 -1.01601,-0.291354 -0.55821,0.06041 -0.99951,0.331177 -1.92075,1.174013 -0.85888,0.788783 -1.27553,1.073277 -1.4357,0.984089 -0.0739,-0.04116 -0.0341,-0.156175 0.16213,-0.52306 0.28267,-0.536641 0.29795,-0.737964 0.0751,-1.192919 -0.19685,-0.40014 -0.3454,-0.466715 -0.61609,-0.270421 -0.19875,0.13951 -0.2495,0.216164 -0.34985,0.555729 -0.0694,0.211546 -0.14715,0.612105 -0.16865,0.882594 -0.0533,0.632061 -0.18795,1.033248 -0.32348,0.957784 -0.0924,-0.05146 -0.43479,-0.798949 -0.44284,-0.972906 -0.004,-0.05068 -0.0683,-0.239759 -0.14889,-0.413788 -0.17017,-0.361077 -0.51648,-0.594257 -0.8637,-0.593909 -0.11367,0.0013 -0.28554,-0.03794 -0.39026,-0.09626 -0.38539,-0.206466 -0.43542,-0.145606 -0.45251,0.522779 -0.009,0.334193 0.0307,0.799927 0.0771,1.035553 0.09,0.389081 0.13448,0.454185 0.54708,0.829195 0.49471,0.44494 0.66089,0.682741 0.582,0.824426 -0.14064,0.252571 -1.14484,0.476222 -1.75358,0.395505 -0.52999,-0.07722 -0.76905,-0.02471 -1.14393,0.242695 -0.23506,0.175779 -0.45361,0.26391 -0.68784,0.278752 -0.32944,0.02639 -0.54736,0.171364 -0.57907,0.387742 -0.0393,0.244447 1.0814,0.666714 1.69778,0.646766 0.16437,-0.0053 0.61645,-0.09254 1.01239,-0.194882 0.7953,-0.210847 0.9939,-0.205176 1.40664,0.02465 0.62834,0.349879 0.71598,1.07658 0.23575,1.939013 -0.2847,0.511301 -0.4887,1.124034 -0.55632,1.651298 -0.0421,0.307452 0.0967,0.594539 0.29114,0.622121 0.15065,0.01932 1.46125,-1.203908 1.50802,-1.403832 0.0192,-0.07808 0.0216,-0.343087 0.003,-0.571159 -0.0148,-0.234226 0.004,-0.586901 0.0446,-0.790261 l 0.0702,-0.372484 0.56927,-0.167236 c 0.62064,-0.187046 1.10849,-0.439962 1.97814,-1.045203 0.3125,-0.213369 0.60028,-0.367864 0.63724,-0.347286 0.0862,0.04802 0.31403,1.030307 0.47467,2.031698 0.0599,0.356181 0.15954,0.742526 0.22723,0.852849 0.0677,0.11033 0.0984,0.272664 0.075,0.372626 -0.0234,0.09996 -0.40745,0.717344 -0.85666,1.379154 -0.443,0.665265 -1.12888,1.679502 -1.5239,2.258498 -0.85524,1.275031 -1.62713,2.733662 -2.31356,4.401287 -1.31593,3.1894 -2.08437,6.0622486 -2.69502,10.0720906 -0.3522,2.313737 -0.44069,3.168332 -0.59247,5.73085796 -0.2269,3.75545254 -0.38861,5.26331364 -0.76104,7.25104814 -0.42745,2.2314793 -0.80589,3.3604173 -1.73625,5.1181843 -0.77256,1.474397 -1.35683,2.33539 -2.40587,3.567063 -1.56115,1.81811 -3.59166,3.189252 -5.7619,3.869246 -1.05634,0.331812 -1.29813,0.374724 -5.11939,0.918209 -2.08084,0.302049 -3.06719,0.479149 -3.65018,0.671026 -0.9892,0.312701 -1.08315,0.437933 -0.55884,0.713747 0.28683,0.151585 0.44635,0.183968 0.83192,0.172701 0.80609,-0.0273 1.92026,0.04433 3.15693,0.200299 1.51606,0.190489 2.61244,0.23606 3.53158,0.150665 2.45333,-0.231838 5.17798,-1.313306 7.66905,-3.033265 1.52411,-1.055919 2.24935,-1.749642 3.32663,-3.191558 0.52391,-0.708991 1.78278,-2.9698 2.2235,-4.007567 1.37006,-3.199613 2.39898,-7.0330408 3.52529,-13.12840644 0.19895,-1.067475 0.42955,-2.27873596 0.51762,-2.69777096 0.0942,-0.41561 0.24355,-1.147557 0.34057,-1.626168 0.3083,-1.539224 0.81254,-3.15496 1.56767,-5.018371 0.35492,-0.883783 1.29538,-2.5148696 1.92484,-3.3264906 0.36482,-0.466688 0.71802,-1.028622 1.25998,-2.001941 l 0.75464,-1.355254 0.58405,-0.57059 c 0.71564,-0.690997 0.76773,-0.726556 0.86069,-0.545667 0.25151,0.519348 0.72676,1.260125 1.2753,1.985217 0.34539,0.466712 0.65383,0.912846 0.69142,0.990272 0.0731,0.202097 -0.28492,0.729077 -1.19882,1.761615 -0.50185,0.567933 -0.77752,0.947071 -1.03409,1.393334 -0.3979,0.714589 -0.53182,1.1000186 -0.78299,2.3482476 -0.13209,0.628561 -0.31761,1.251583 -0.6238,2.033376 -0.53897,1.402716 -0.58503,1.586896 -0.4759,2.043106 0.11592,0.516479 0.26706,0.737831 0.48624,0.706539 0.16164,-0.01491 0.16234,-0.03066 0.24903,-0.490813 0.073,-0.435489 0.10046,-0.484771 0.27316,-0.6065 0.10416,-0.07112 0.28995,-0.274343 0.42436,-0.457747 0.2119,-0.293593 0.24074,-0.374377 0.25145,-0.828418 0.0176,-0.466357 0.0354,-0.512908 0.19854,-0.631913 0.28645,-0.195587 0.4275,-0.173537 0.67721,0.102698 0.25313,0.270076 0.47362,0.990051 0.60964,1.977726 0.0503,0.358908 0.13692,0.754143 0.1916,0.873363 0.0608,0.122644 0.32488,0.431079 0.59376,0.701848 0.26887,0.270771 0.52817,0.544278 0.56919,0.615541 0.0622,0.09114 0.12111,0.115851 0.2266,0.08583 0.12471,-0.03547 0.13843,-0.06011 0.13034,-0.234089 -0.005,-0.10752 0.0435,-0.338956 0.11075,-0.503253 0.1648,-0.440873 0.10571,-0.957993 -0.23163,-1.960922 -0.47391,-1.409867 -0.47188,-1.38452 -0.34433,-1.55561 0.24897,-0.345581 1.21315,-0.309059 2.39136,0.09682 0.37312,0.127057 0.74078,0.234938 0.80651,0.24733 0.20406,0.02485 0.31788,-0.121597 0.27224,-0.372979 -0.0197,-0.123944 -0.0346,-0.358202 -0.0303,-0.5253 l 0.004,-0.296529 -0.41891,-0.233257 c -0.26488,-0.147494 -0.60993,-0.266992 -0.96324,-0.342668 -0.46285,-0.09632 -0.89484,-0.248095 -1.09057,-0.389362 -0.0212,-0.01992 0.19874,-0.139516 0.49472,-0.265238 1.06194,-0.457816 1.43142,-0.816998 1.30926,-1.264319 -0.16177,-0.5500836 -0.54657,-0.6271566 -1.33313,-0.2581026 l -0.51249,0.2391966 0.20787,-0.4168896 c 0.16262,-0.321032 0.42048,-0.653594 1.07106,-1.372749 1.10514,-1.216581 1.24991,-1.491063 1.31251,-2.473059 0.0494,-0.827927 -0.0218,-1.497083 -0.24283,-2.419094 -0.17598,-0.727469 -0.77982,-2.3388 -1.18647,-3.202783 -0.13875,-0.287086 -0.24459,-0.60427 -0.22736,-0.707662 0.0372,-0.269786 0.83275,-1.408599 1.45047,-2.097634 1.33755,-1.474539 1.88127,-2.132142 2.3792,-2.895943 1.44578,-2.205159 2.27568,-4.898519 2.46562,-7.964366 0.11138,-1.86677 -0.0132,-3.324233 -0.42328,-4.892233 -0.28183,-1.044655 -0.3239,-1.447383 -0.27559,-2.534179 0.0113,-0.397196 0.0209,-1.037515 0.013,-1.429254 -0.0312,-1.001952 0.005,-1.312833 0.19337,-1.651647 0.30185,-0.542101 0.77457,-0.738882 2.017,-0.854094 0.74448,-0.0616 1.14112,-0.179692 1.54748,-0.445706 0.25355,-0.165484 0.3475,-0.29072 0.64249,-0.820502 0.3293,-0.591384 0.34099,-0.641365 0.37235,-1.204959 0.008,-0.318444 -0.0414,-1.128656 -0.11948,-1.785497 -0.14805,-1.284904 -0.11704,-1.485533 0.25972,-1.582412 0.28428,-0.07575 0.7197,0.06987 1.4254,0.454746 0.39425,0.219528 0.6359,0.321806 0.75028,0.304794 0.14932,-0.02177 0.15345,-0.04368 0.0662,-0.495759 -0.0518,-0.254811 -0.12208,-0.51991 -0.16653,-0.585015 -0.11214,-0.175425 -0.4462,-0.329158 -0.88785,-0.405601 -0.22253,-0.03514 -0.42246,-0.08191 -0.45053,-0.08947 -0.11705,-0.06517 0.0783,-0.198526 0.53797,-0.386416 0.60427,-0.244588 0.89961,-0.427153 1.01623,-0.636603 0.15436,-0.277212 -0.15834,-0.556244 -0.70954,-0.653337 z"
         id="path171-7-9"
         style="fill:#b3c8ff;fill-opacity:1;stroke:none;stroke-width:0.00705086" /><path
         d="m 674.22931,10.508777 c 0.29419,-0.194013 0.37724,-0.301016 0.54545,-0.7475515 0.17175,-0.461906 0.19423,-0.489061 0.55071,-0.574783 0.50045,-0.120343 0.80254,-0.432295 0.97177,-0.9951196 0.0405,-0.133019 0.0696,-0.132754 0.37627,-0.0035 0.18403,0.07182 0.49451,0.156705 0.68926,0.182352 l 0.35188,0.04592 0.0924,-0.188987 c 0.10109,-0.212864 0.0555,-0.462947 -0.11218,-0.647437 -0.16079,-0.186164 -0.32782,-0.247535 -0.68519,-0.255853 -0.16756,-0.0032 -0.33322,-0.02865 -0.36203,-0.05798 -0.0289,-0.02931 0.0959,-0.204331 0.2771,-0.385713 0.29524,-0.310296 0.41008,-0.526439 0.31652,-0.583722 -0.0171,-0.01037 -0.33019,0.01413 -0.69656,0.05871 -0.84574,0.101849 -0.97573,0.1041 -1.08576,-0.02174 -0.0796,-0.08964 -0.24651,-0.542615 -0.78915,-2.196094 l -0.14498,-0.422006 0.23351,-0.324751 c 0.32399,-0.462221 0.5881,-0.931895 0.78565,-1.407225 0.26574,-0.6440536 0.46916,-0.8234902 1.10533,-1.01273908 l 0.53664,-0.1507896 0.39776,0.26697168 c 0.22278,0.1421868 0.76734,0.62769 1.21319,1.064373 0.97125,0.962994 1.507,1.291044 2.40826,1.480425 0.53593,0.117685 0.70627,0.192758 1.15644,0.526898 0.54704,0.405075 0.85507,0.570344 1.24593,0.657621 0.2389,0.05857 1.16089,0.03268 1.85087,-0.05347 0.35102,-0.04815 0.43632,-0.02515 0.70488,0.156835 0.54043,0.377686 1.08452,0.348375 1.56537,-0.06458 0.14996,-0.130331 0.2528,-0.155056 0.70117,-0.190359 0.29783,-0.02811 0.87342,-0.137498 1.3278,-0.268519 1.1144,-0.311471 1.56565,-0.66655 1.73265,-1.359368 0.16863,-0.685974 -0.38965,-1.7410278 -1.55876,-2.95378618 -0.3693,-0.3898232 -0.43846,-0.4964678 -0.52088,-0.8392388 -0.14836,-0.61699812 -0.5116,-0.92125252 -1.10316,-0.93853992 -0.35048,-0.01 -0.57461,-0.1881968 -1.22082,-0.9755168 -0.58528,-0.7149796 -1.09005,-1.0649757 -1.635,-1.1297384 -0.20844,-0.022415 -0.57568,-0.07187 -0.82335,-0.1065924 -0.2493,-0.041594 -0.95141,-0.1265583 -1.56301,-0.1970471 -1.43685,-0.1548686 -3.10311,-0.6606815 -3.17565,-0.9623178 -0.0115,-0.047959 0.0147,-0.3008595 0.0582,-0.5723807 0.0741,-0.4456871 0.0683,-0.5603166 -0.13279,-1.3966824 -0.20112,-0.836367 -0.20884,-0.928785 -0.10688,-1.047571 0.15589,-0.196839 0.47025,-0.185608 0.84469,0.01444 0.51902,0.288533 0.81847,0.267299 1.55548,-0.105726 0.34192,-0.176482 0.65805,-0.339523 0.69589,-0.36313 0.16668,-0.09087 0.0328,-0.225445 -0.3339,-0.333067 -0.203,-0.05993 -0.48931,-0.165194 -0.64099,-0.223003 -0.33052,-0.138115 -0.69803,-0.158483 -1.10936,-0.05957 -0.40447,0.09726 -0.65161,0.0044 -0.72085,-0.283523 -0.0462,-0.19195 0.0254,-0.346932 0.57868,-1.2124214 0.6037,-0.957421 0.7032,-1.177096 0.5044,-1.129303 -0.0548,0.01318 -0.1484,-0.04405 -0.21262,-0.130132 -0.24174,-0.311708 -0.68588,0.01264 -0.98998,0.738432 -0.21315,0.500868 -0.31125,0.575253 -0.89401,0.715355 -0.34277,0.08242 -0.51198,0.07235 -0.97441,-0.04126 -1.09547,-0.273218 -1.25992,-0.05238 -1.27537,1.6627594 -0.0154,1.142247 -0.0277,1.181462 -0.3114,0.966849 -0.27515,-0.209417 -1.55462,-1.7002 -2.25601,-2.6265714 -1.02573,-1.370511 -1.4484,-2.102839 -1.95963,-3.444782 -0.69657,-1.841269 -1.28175,-2.947876 -1.93176,-3.690798 -0.40115,-0.46193 -0.772,-1.25023 -0.83064,-1.765514 -0.0289,-0.210598 -0.0205,-0.38668 0.007,-0.393267 0.0343,-0.0082 0.29349,0.07444 0.58669,0.178008 0.63748,0.238275 2.79298,0.728005 3.1676,0.717686 0.36776,-0.0086 0.66497,-0.159895 0.94484,-0.473757 0.3698,-0.42249 0.51108,-0.920594 0.61803,-2.164628 0.0977,-1.16203 0.21155,-1.653523 0.3898,-1.696392 0.0823,-0.01977 0.13083,0.09185 0.23496,0.494645 0.15549,0.586266 0.2806,0.744731 0.75267,0.928543 0.41586,0.16103 0.57021,0.109451 0.63642,-0.21831 0.0517,-0.237248 0.0372,-0.328015 -0.11898,-0.645809 -0.0922,-0.202628 -0.3063,-0.550002 -0.47368,-0.76357 -0.38884,-0.501149 -0.56151,-0.887484 -0.41068,-0.923749 0.10279,-0.02471 0.86099,0.293337 0.98473,0.41586 0.0373,0.03456 0.21262,0.130133 0.38981,0.203558 0.36974,0.150424 0.78246,0.08742 1.03769,-0.147992 0.0828,-0.07792 0.2358,-0.165467 0.35233,-0.193506 0.42337,-0.109103 0.41895,-0.187763 -0.0212,-0.691088 -0.22005,-0.251669 -0.56438,-0.567717 -0.75805,-0.7097 -0.32975,-0.225296 -0.40653,-0.243125 -0.9641,-0.239545 -0.66532,0.0077 -0.94864,-0.0547 -0.98656,-0.212384 -0.0676,-0.281072 0.51976,-1.125739 1.02227,-1.478658 0.44223,-0.302139 0.58256,-0.502674 0.67725,-0.953308 0.0539,-0.288528 0.155,-0.501389 0.31731,-0.670934 0.22451,-0.242524 0.28666,-0.496769 0.16343,-0.677456 -0.13666,-0.206456 -1.24717,0.241875 -1.68715,0.674011 -0.1173,0.115253 -0.39083,0.48561 -0.61256,0.829269 -0.4423,0.69378 -0.59226,0.82411 -1.05159,0.934553 -0.69927,0.168142 -1.25591,-0.307162 -1.4867,-1.266922 -0.13683,-0.56901 -0.40173,-1.157974 -0.70908,-1.591693 -0.17726,-0.254707 -0.47379,-0.371947 -0.63555,-0.26052 -0.12392,0.08782 -0.25971,1.875418 -0.15872,2.054181 0.0388,0.0705 0.2165,0.267029 0.38441,0.422452 0.16954,0.162304 0.39456,0.434506 0.50241,0.611617 l 0.20061,0.321607 -0.30558,0.508581 c -0.32992,0.557972 -0.51755,1.074453 -0.7475,2.108725 -0.0854,0.368631 -0.19249,0.677206 -0.23361,0.6871 -0.096,0.02307 -0.92886,-0.545321 -1.72525,-1.173303 -0.28533,-0.221482 -0.62028,-0.438248 -0.7448,-0.473578 -0.12453,-0.03531 -0.25705,-0.133948 -0.3075,-0.223424 -0.0505,-0.08938 -0.18606,-0.803722 -0.30379,-1.594873 -0.12464,-0.789491 -0.30693,-2.000231 -0.40843,-2.693755 -0.23432,-1.51731 -0.65431,-3.11325 -1.27872,-4.805072 -1.19193,-3.23779 -2.57226,-5.871879 -4.83874,-9.235616 -1.30792,-1.940833 -1.82161,-2.629513 -3.44546,-4.617647 -2.37654,-2.916674 -3.27879,-4.135582 -4.35103,-5.850253 -1.19682,-1.931278 -1.68299,-3.018173 -2.18899,-4.941531 -0.43017,-1.607992 -0.58343,-2.637159 -0.64579,-4.253834 -0.0828,-2.394959 0.48249,-4.77896 1.61867,-6.749098 0.55245,-0.95957 0.70128,-1.154888 3.14461,-4.142796 1.32635,-1.631541 1.9321,-2.429859 2.23074,-2.96611 0.51601,-0.90002 0.50033,-1.055794 -0.0722,-0.903612 -0.31369,0.08273 -0.45299,0.166944 -0.72903,0.436376 -0.57458,0.566025 -1.44282,1.267921 -2.45832,1.990733 -1.24442,0.886639 -2.08193,1.595657 -2.70033,2.280992 -1.64798,1.832142 -2.92014,4.473149 -3.58802,7.425713 -0.40619,1.809112 -0.46993,2.810688 -0.28595,4.601172 0.0947,0.876452 0.69972,3.3924 1.07831,4.454406 1.15902,3.281961 2.99829,6.799198 6.29786,12.046571 0.57659,0.920121 1.2273,1.96746 1.4463,2.335407 0.21215,0.369586 0.59802,1.009238 0.85078,1.427083 0.81566,1.341256 1.53897,2.871517 2.24544,4.753917 0.33743,0.890595 0.75019,2.727591 0.83677,3.751044 0.0477,0.590439 0.16839,1.243078 0.42885,2.326241 l 0.36267,1.508201 -0.0433,0.815364 c -0.0585,0.99307 -0.0728,1.054511 -0.26367,0.984389 -0.53677,-0.211794 -1.38815,-0.4349 -2.28282,-0.596861 -0.5702,-0.10946 -1.09928,-0.228793 -1.17938,-0.260298 -0.19079,-0.09887 -0.28416,-0.729369 -0.31108,-2.108004 -0.0154,-0.757735 -0.0694,-1.223389 -0.18286,-1.725485 -0.19123,-0.795228 -0.35374,-1.169508 -1.01434,-2.257977 -0.32852,-0.551912 -0.61398,-1.135945 -0.91819,-1.918507 -0.5535,-1.397046 -0.64434,-1.56375 -1.03362,-1.825486 -0.43506,-0.30152 -0.6962,-0.361958 -0.83626,-0.190507 -0.10881,0.120443 -0.0987,0.132502 0.1492,0.52977 0.24123,0.369853 0.25441,0.424698 0.20979,0.63122 -0.0285,0.122858 -0.0275,0.398216 -0.002,0.624188 0.043,0.359525 0.0764,0.438498 0.37607,0.7798 0.30292,0.355018 0.32131,0.401357 0.28191,0.599379 -0.0783,0.337906 -0.19702,0.417205 -0.56781,0.383096 -0.36915,-0.02727 -1.019,-0.407625 -1.78799,-1.042182 -0.28012,-0.229963 -0.6115,-0.462113 -0.73247,-0.512793 -0.1278,-0.04906 -0.53098,-0.09712 -0.91219,-0.114233 -0.38121,-0.01711 -0.75722,-0.04273 -0.83567,-0.06737 -0.10748,-0.02496 -0.16755,-0.0032 -0.22484,0.09032 -0.0677,0.110578 -0.0611,0.137976 0.0626,0.260503 0.0762,0.07597 0.19758,0.278816 0.25936,0.445267 0.17735,0.435979 0.57105,0.776416 1.4985,1.285834 1.30355,0.716282 1.28487,0.699048 1.30691,0.911305 0.0509,0.422878 -0.68326,1.049 -1.82499,1.548369 -0.36056,0.15923 -0.70413,0.328862 -0.76088,0.364262 -0.16692,0.119944 -0.15152,0.304743 0.0523,0.458794 0.0984,0.07782 0.26803,0.240118 0.37806,0.365959 l 0.19809,0.220679 0.46619,-0.112094 c 0.29478,-0.07089 0.62957,-0.216658 0.94076,-0.400269 0.40577,-0.242608 0.8264,-0.423513 1.06608,-0.452151 0.029,3.54e-4 -0.0517,0.23725 -0.18434,0.53021 -0.47124,1.056046 -0.49982,1.570547 -0.10698,1.816928 0.49157,0.295155 0.82688,0.09124 1.15563,-0.71299 l 0.21505,-0.523092 0.12941,0.447506 c 0.0978,0.346329 0.1333,0.765649 0.14172,1.735372 0.0109,1.643558 0.0903,1.943546 0.70928,2.70844 0.52437,0.642594 1.02999,1.08666 1.81704,1.615345 0.62217,0.416022 2.15774,1.192574 3.04206,1.552847 0.29653,0.117231 0.58912,0.279125 0.64659,0.366631 0.1553,0.223717 0.34132,1.600347 0.35351,2.52566 0.0146,1.990747 0.0599,2.842809 0.21089,3.742012 0.42978,2.601582 1.64334,5.145242 3.58001,7.5295244 1.18237,1.4488848 2.26114,2.4367929 3.62481,3.3126944 0.91486,0.5777085 1.21856,0.8455239 1.91909,1.6778302 0.26066,0.29991 0.68733,0.7774565 0.95841,1.0603644 0.70156,0.7160241 0.88569,0.96907422 0.97636,1.34612582 0.14506,0.6032868 -0.0695,1.0682275 -0.90553,1.99445088 -0.50601,0.5495341 -0.71787,0.9050371 -0.83666,1.3759791 -0.0745,0.293476 -0.0588,0.449249 0.083,1.038819 0.15825,0.658124 0.1835,0.702807 0.54213,1.138712 0.20991,0.239597 0.79484,0.80237 1.29718,1.23272 0.97916,0.845078 1.09222,1.013692 0.88064,1.340129 -0.15785,0.248276 -0.57683,0.436036 -1.3567,0.630822 -0.43874,0.105495 -0.6858,0.193909 -0.75843,0.283891 -0.0948,0.117416 -0.0833,0.136093 0.28703,0.4096022 0.2107,0.152374 0.44195,0.299822 0.51873,0.317652 0.2013,0.05314 0.55121,-0.06003 0.92792,-0.302899 0.18753,-0.124862 0.36629,-0.225868 0.39206,-0.2393132 0.13029,-0.03131 0.0769,0.1990702 -0.13409,0.6486562 -0.27894,0.589191 -0.37258,0.9235466 -0.31652,1.1566266 0.0742,0.308504 0.49321,0.302032 0.96452,1.27e-4 z"
         id="path172-4-7"
         style="fill:#b3c8ff;fill-opacity:1;stroke:none;stroke-width:0.00705086" /><path
         d="m 580.56463,2.8857599 c 0.35016,0.03963 0.48251,0.010679 0.8978,-0.2243255 0.42786,-0.2445016 0.46252,-0.2509431 0.79112,-0.088293 0.46127,0.2283797 0.8931,0.1824764 1.38371,-0.1411207 0.11636,-0.076147 0.13852,-0.057295 0.29103,0.2385188 0.0953,0.1730295 0.2793,0.4371451 0.41221,0.5817288 l 0.24085,0.2606165 0.19201,-0.085905 c 0.21406,-0.098563 0.33925,-0.3198561 0.32882,-0.5689011 -0.004,-0.2459604 -0.093,-0.4001051 -0.36206,-0.6355002 -0.12653,-0.1098789 -0.23742,-0.2355669 -0.24058,-0.2766822 -0.003,-0.041009 0.2046,-0.095367 0.4599,-0.1184981 0.42551,-0.048995 0.65217,-0.141346 0.61706,-0.2452719 -0.006,-0.018982 -0.26253,-0.2007601 -0.57234,-0.4013248 -0.7145,-0.46382627 -0.81572,-0.54541037 -0.81954,-0.71252197 -0.004,-0.1198013 0.15851,-0.5745281 0.80163,-2.19157323 l 0.15915,-0.4168619 0.38746,-0.099308 c 0.54493,-0.147224 1.04868,-0.3384238 1.50495,-0.5767468 0.61675,-0.3241072 0.8879,-0.3314922 1.49754,-0.069049 l 0.5086,0.2281156 0.13429,0.4598268 c 0.0799,0.2519353 0.18678,0.9736285 0.24917,1.59456783 0.12841,1.361708 0.32945,1.95686167 0.89994,2.67984007 0.33601,0.4337723 0.41866,0.6005629 0.55006,1.1456056 0.1603,0.6615434 0.29088,0.9858074 0.53493,1.3033188 0.14584,0.198083 0.87021,0.769079 1.45507,1.1451333 0.30036,0.187961 0.35109,0.2603013 0.44064,0.5720966 0.17281,0.6362706 0.60927,0.9624623 1.24304,0.9536315 0.19863,-0.00393 0.29344,0.042958 0.66024,0.3032465 0.24663,0.1692677 0.7586,0.4541934 1.19136,0.6448123 1.05508,0.4750953 1.62906,0.4916838 2.20126,0.066884 0.56907,-0.4184976 0.81665,-1.5861996 0.69642,-3.2664135 -0.0337,-0.5359242 -0.0184,-0.6621256 0.13799,-0.9780757 0.28152,-0.5687098 0.19767,-1.0350574 -0.24535,-1.427444 -0.26266,-0.2322808 -0.32056,-0.5126833 -0.31199,-1.5312465 0.009,-0.92393467 -0.15426,-1.51610387 -0.5311,-1.91505887 -0.14538,-0.15103383 -0.39601,-0.42396923 -0.56344,-0.60973303 -0.16468,-0.1917246 -0.64912,-0.7070035 -1.07353,-1.152992 -1.00373,-1.0397317 -1.9587,-2.4958632 -1.82107,-2.773894 0.022,-0.044275 0.20407,-0.2215529 0.41147,-0.4021183 0.34252,-0.2946216 0.41153,-0.3863413 0.79315,-1.157262 0.38163,-0.7709273 0.43492,-0.8468143 0.58933,-0.8726633 0.24575,-0.05142 0.47992,0.158903 0.63917,0.552422 0.21347,0.5541293 0.45698,0.7297318 1.26182,0.9157083 0.37558,0.083607 0.72274,0.1610526 0.76691,0.1672195 0.18621,0.037047 0.16968,-0.1520168 -0.0429,-0.4696658 -0.11734,-0.1761528 -0.2698,-0.4403944 -0.34921,-0.581948 -0.1653,-0.31779 -0.4343,-0.568991 -0.81344,-0.75668 -0.37281,-0.184567 -0.50298,-0.414252 -0.37161,-0.67963 0.0876,-0.176932 0.2418,-0.250085 1.22122,-0.559862 1.07703,-0.348002 1.29418,-0.45293 1.11095,-0.543635 -0.0505,-0.02534 -0.0856,-0.128942 -0.0798,-0.2361793 0.0142,-0.394225 -0.53462,-0.42986 -1.23319,-0.06761 -0.48462,0.2478983 -0.60761,0.2420803 -1.14473,-0.0238 -0.31595,-0.156412 -0.4394,-0.272575 -0.72156,-0.656157 -0.66584,-0.911792 -0.93361,-0.847648 -2.04464,0.459088 -0.74387,0.8669743 -0.77846,0.8891853 -0.85868,0.5426393 -0.0771,-0.3370643 -0.10378,-2.3014723 -0.0485,-3.4620913 0.0909,-1.70943 0.23579,-2.542483 0.70336,-3.900257 0.64529,-1.859847 0.90527,-3.084356 0.88241,-4.071237 -0.0119,-0.611683 0.20862,-1.4545 0.49383,-1.887629 0.11275,-0.180207 0.2321,-0.30996 0.25736,-0.297436 0.0316,0.01585 0.17752,0.245261 0.33632,0.512621 0.33658,0.59147 1.67746,2.348788 1.97165,2.580955 0.28783,0.22906 0.61295,0.303416 1.02893,0.24183 0.55463,-0.08735 0.9823,-0.379159 1.86167,-1.265593 0.8197,-0.82943 1.2221,-1.133752 1.3864,-1.052422 0.0758,0.0376 0.0416,0.154364 -0.13662,0.530288 -0.25637,0.549694 -0.26184,0.751539 -0.0173,1.195161 0.21599,0.390145 0.36758,0.449462 0.62847,0.24027 0.19177,-0.148963 0.23873,-0.227988 0.32254,-0.572009 0.0591,-0.214664 0.11737,-0.618518 0.12574,-0.889722 0.0227,-0.633904 0.13773,-1.041142 0.27675,-0.972321 0.0948,0.04692 0.47294,0.77697 0.48942,0.950327 0.007,0.0504 0.0797,0.236207 0.16861,0.406152 0.18741,0.352452 0.54467,0.568536 0.89143,0.551415 0.11346,-0.0067 0.28705,0.02405 0.39447,0.07727 0.39493,0.18756 0.44196,0.124332 0.42667,-0.54407 -0.008,-0.334208 -0.0694,-0.797503 -0.1271,-1.030605 -0.10875,-0.38427 -0.15633,-0.447135 -0.58656,-0.80175 -0.51566,-0.420478 -0.6932,-0.649925 -0.62124,-0.795273 0.12825,-0.25909 1.12045,-0.531069 1.73238,-0.479915 0.53311,0.05148 0.76935,-0.01254 1.13084,-0.297775 0.22629,-0.186944 0.44032,-0.285562 0.67355,-0.311714 0.32778,-0.0423 0.53842,-0.197664 0.55962,-0.415317 0.0274,-0.246058 -1.1124,-0.613599 -1.72711,-0.56381 -0.16391,0.01325 -0.61124,0.122269 -1.00176,0.243646 -0.78417,0.249096 -0.98281,0.25304 -1.40618,0.04346 -0.64454,-0.319075 -0.76726,-1.040666 -0.32933,-1.925335 0.25962,-0.524477 0.43373,-1.146365 0.47575,-1.676291 0.0272,-0.309121 -0.12533,-0.589163 -0.32094,-0.607283 -0.15141,-0.01198 -1.40126,1.273219 -1.4383,1.47517 -0.0153,0.07884 -0.005,0.343733 0.0244,0.570646 0.0261,0.233242 0.0244,0.586415 -0.006,0.791494 l -0.0521,0.375452 -0.5605,0.194588 c -0.61086,0.216872 -1.08591,0.493098 -1.92524,1.139715 -0.30181,0.228245 -0.58177,0.396483 -0.61968,0.377721 -0.0885,-0.0438 -0.36358,-1.013878 -0.57246,-2.00634 -0.077,-0.352878 -0.19529,-0.733931 -0.26818,-0.84088 -0.073,-0.106936 -0.11169,-0.267484 -0.0929,-0.368541 0.0186,-0.100984 0.37226,-0.736223 0.78891,-1.419002 0.41028,-0.68593 1.04627,-1.732164 1.41281,-2.329606 0.79253,-1.314932 1.49292,-2.809211 2.09783,-4.508101 1.16004,-3.249351 1.78853,-6.156023 2.2044,-10.190721 0.23981,-2.328068 0.28683,-3.185951 0.31442,-5.752818 0.0449,-3.762031 0.13342,-5.275954 0.40921,-7.279379 0.31895,-2.249551 0.64231,-3.395486 1.4865,-5.196217 0.70031,-1.510063 1.24222,-2.398324 2.23043,-3.679326 1.47132,-1.89154 3.43309,-3.359339 5.56788,-4.143577 1.03904,-0.382551 1.27847,-0.437104 5.06894,-1.164893 2.06379,-0.402406 3.04042,-0.627039 3.61343,-0.846898 0.97291,-0.360218 1.0607,-0.489849 0.52364,-0.739966 -0.29383,-0.137501 -0.45475,-0.162058 -0.8393,-0.132229 -0.80382,0.06628 -1.92016,0.04867 -3.16293,-0.04727 -1.52349,-0.1169 -2.62079,-0.109355 -3.53473,0.02043 -2.43924,0.350304 -5.10835,1.562368 -7.51326,3.400872 -1.47122,1.12844 -2.16204,1.856461 -3.16827,3.348816 -0.48897,0.733514 -1.63696,3.0526 -2.02693,4.110476 -1.2136,3.262178 -2.05579,7.140916 -2.88578,13.283654 -0.14706,1.075845 -0.31876,2.296851 -0.38645,2.719659 -0.074,0.419681 -0.18771,1.157994 -0.26146,1.640739 -0.23346,1.552352 -0.65891,3.190594 -1.32296,5.088362 -0.31172,0.899927 -1.17214,2.574619 -1.76158,3.415752 -0.34181,0.483797 -0.6674,1.062165 -1.16163,2.060578 l -0.68816,1.390191 -0.55575,0.598181 c -0.68136,0.724825 -0.73167,0.762859 -0.83328,0.586685 -0.27631,-0.506582 -0.78689,-1.223476 -1.36988,-1.921167 -0.36756,-0.449459 -0.69725,-0.880127 -0.73856,-0.955629 -0.0832,-0.198129 0.2493,-0.742013 1.11215,-1.817571 0.47379,-0.591558 0.73077,-0.983583 0.96545,-1.441745 0.36285,-0.733004 0.47796,-1.124471 0.66842,-2.38339 0.10151,-0.634212 0.25666,-1.265487 0.52466,-2.061181 0.47047,-1.427157 0.50754,-1.613358 0.37646,-2.063745 -0.14074,-0.510282 -0.30247,-0.724037 -0.51986,-0.68219 -0.16074,0.02276 -0.16067,0.0385 -0.22499,0.502297 -0.0518,0.438511 -0.0769,0.489064 -0.24348,0.61901 -0.10059,0.07608 -0.27633,0.28805 -0.4017,0.47775 -0.19744,0.303506 -0.22234,0.385586 -0.21106,0.839612 0.005,0.466661 -0.0106,0.514028 -0.16773,0.640784 -0.27665,0.209219 -0.41859,0.194013 -0.68138,-0.06981 -0.26588,-0.257532 -0.52095,-0.965981 -0.70465,-1.945895 -0.0676,-0.35606 -0.17325,-0.746641 -0.23364,-0.863069 -0.0667,-0.119516 -0.34534,-0.414876 -0.62704,-0.672284 -0.28162,-0.257472 -0.55392,-0.518047 -0.59831,-0.587276 -0.0665,-0.08809 -0.12653,-0.109881 -0.23035,-0.07517 -0.12285,0.04148 -0.13537,0.06673 -0.11886,0.240123 0.01,0.107207 -0.027,0.34066 -0.0863,0.508022 -0.14324,0.448339 -0.0592,0.961988 0.32626,1.947418 0.54163,1.385256 0.53836,1.360044 0.41922,1.537115 -0.23195,0.357225 -1.19677,0.367413 -2.39325,0.01903 -0.37883,-0.10885 -0.75129,-0.198782 -0.81753,-0.208028 -0.20501,-0.01499 -0.31162,0.136833 -0.25387,0.385712 0.0257,0.122849 0.0519,0.356094 0.0557,0.52322 l 0.0106,0.296361 0.42971,0.212718 c 0.27171,0.134506 0.62212,0.237202 0.97869,0.295647 0.46695,0.07386 0.90579,0.204526 1.10814,0.336117 0.0224,0.01868 -0.19175,0.148969 -0.48129,0.288874 -1.03855,0.508678 -1.39021,0.885318 -1.24655,1.326208 0.18825,0.541589 0.57631,0.599947 1.34405,0.193279 l 0.50033,-0.263718 -0.18745,0.426455 c -0.1469,0.328527 -0.38836,0.673185 -1.00336,1.422975 -1.04498,1.268647 -1.17629,1.549809 -1.19129,2.533686 -0.009,0.829354 0.0943,1.49427 0.35963,2.404512 0.21095,0.718105 0.89209,2.298321 1.34004,3.141619 0.15245,0.280062 0.27351,0.591748 0.26135,0.695831 -0.0242,0.271277 -0.76361,1.447253 -1.34725,2.165375 -1.26462,1.537543 -1.77587,2.220697 -2.23625,3.007691 -1.33737,2.272556 -2.03595,5.002927 -2.07728,8.074366 -0.0209,1.869977 0.17408,3.319705 0.65956,4.866022 0.33205,1.029786 0.39357,1.430001 0.39791,2.5178723 0.008,0.397273 0.0294,1.037301 0.0562,1.428203 0.0797,0.9992661 0.0588,1.311527 -0.1132,1.6590754 -0.27527,0.5560752 -0.73791,0.7754972 -1.97331,0.950705 -0.74062,0.097557 -1.13108,0.2347056 -1.5241,0.5200856 -0.24524,0.1775469 -0.33303,0.3071767 -0.60202,0.8506225 -0.3003,0.6066353 -0.30955,0.6571171 -0.3136,1.2215752 0.008,0.3184509 0.0959,1.1253268 0.20576,1.7776247 0.21006,1.27622943 0.1888,1.47812843 -0.18284,1.59313023 -0.28028,0.089417 -0.72224,-0.034955 -1.44572,-0.3852524 -0.40441,-0.2002233 -0.65073,-0.2906681 -0.76418,-0.2680758 -0.14809,0.028992 -0.15116,0.051067 -0.0421,0.4983834 0.0641,0.2520076 0.14713,0.5133798 0.19462,0.5762787 0.12044,0.1698208 0.4616,0.30717907 0.90644,0.36212507 0.22398,0.024305 0.42593,0.061363 0.45435,0.067519 0.12009,0.059443 -0.0686,0.2020716 -0.51865,0.4119958 -0.59171,0.2735388 -0.87787,0.4701914 -0.98422,0.6850328 -0.14078,0.2843739 0.18505,0.5479489 0.74032,0.6182412 z"
         id="path173-5-7"
         style="fill:#b3c8ff;fill-opacity:1;stroke:none;stroke-width:0.00705086" /></g></g><style
     type="text/css"
     id="style1">
	.st0{fill:#A55B36;}
	.st1{fill:#5A8D3E;}
	.st2{fill:#FFFFFF;}
	.st3{fill:#0445FF;}
	.st4{fill:none;stroke:#000000;stroke-width:2;stroke-linecap:round;stroke-miterlimit:10;}
	.st5{fill:none;stroke:#000000;stroke-width:1.75;stroke-linecap:round;stroke-miterlimit:10;}
	.st6{fill:none;stroke:#000000;stroke-width:1.75;stroke-miterlimit:10;}
</style></svg>
